<?xml version="1.0" encoding="UTF-8" standalone="no"?>

<svg version="1.1" viewBox="0 0 2446.0667 385.05865" xmlns="http://www.w3.org/2000/svg">
    <defs id="defs1">
        <clipPath
                clipPathUnits="userSpaceOnUse"
                id="clipPath153">
            <path
                    d="M 0,288.794 H 1834.554 V 0 H 0 Z"
                    id="path153"/>
        </clipPath>
        <clipPath
                clipPathUnits="userSpaceOnUse"
                id="clipPath165">
            <path
                    d="M 0,288.794 H 1834.554 V 0 H 0 Z"
                    transform="translate(-2.6692501,-49.704299)"
                    id="path165"/>
        </clipPath>
        <clipPath
                clipPathUnits="userSpaceOnUse"
                id="clipPath167">
            <path
                    d="M 0,288.794 H 1834.554 V 0 H 0 Z"
                    transform="translate(-2.6692501,-191.4368)"
                    id="path167"/>
        </clipPath>
    </defs>
    <g id="layer-MC0" transform="translate(-10390.559)">
        <path
                id="path151"
                d="M 0,0 H 1834.555 V 288.794 H 0 Z"
                style="fill:#ededed;fill-opacity:1;fill-rule:nonzero;stroke:none"
                transform="matrix(1.3333333,0,0,-1.3333333,10390.56,385.05867)"/>
        <path
                id="path152"
                d="m 6338.967,-3018.073 h -9624 v 7282.028 h 9624 z"
                style="fill:none;stroke:#ffffff;stroke-width:80;stroke-linecap:butt;stroke-linejoin:miter;stroke-miterlimit:4;stroke-dasharray:none;stroke-opacity:1"
                transform="matrix(1.3333333,0,0,-1.3333333,10390.56,385.05867)"
                clip-path="url(#clipPath153)"/>
    </g>
    <g id="layer-MC3" transform="translate(-10390.559)">
        <path
                id="path154"
                d="M 2.669,2.664 H 797.063 V 286.129 H 2.669 Z"
                style="fill:#ffffff;fill-opacity:1;fill-rule:nonzero;stroke:#0071b9;stroke-width:2.5;stroke-linecap:butt;stroke-linejoin:miter;stroke-miterlimit:4;stroke-dasharray:none;stroke-opacity:1"
                transform="matrix(1.3333333,0,0,-1.3333333,10390.56,385.05867)"/>
        <text
                id="text154"
                xml:space="preserve"
                transform="matrix(1.3333333,0,0,1.3333333,10479.512,254.75787)"><tspan
         id="tspan154"
         style="font-variant:normal;font-weight:normal;font-stretch:normal;font-size:200px;font-family:'Unistra Symbol';writing-mode:lr-tb;fill:#1d1d1b;fill-opacity:1;fill-rule:nonzero;stroke:none"
         x="0"
         y="0">]Y¶</tspan></text>
        <path
                id="path155"
                d="m 1216.859,144.397 h 615.026 v 141.732 h -615.026 z"
                style="fill:#ffffff;fill-opacity:1;fill-rule:nonzero;stroke:#0071b9;stroke-width:2.5;stroke-linecap:butt;stroke-linejoin:miter;stroke-miterlimit:4;stroke-dasharray:none;stroke-opacity:1"
                transform="matrix(1.3333333,0,0,-1.3333333,10390.56,385.05867)"/>
        <path
                id="path156"
                d="m 31.59378,-16.299894 v -43.101562 h 6.609375 V 8.875e-4 H 33.09378 L 31.792998,-4.3936437 C 30.46292,-2.5948156 28.831084,-1.2295812 26.894561,-0.29208125 24.963897,0.63662969 22.798858,1.10245 20.402373,1.10245 c -4.734375,0 -8.387695,-1.43261719 -10.9570308,-4.3007812 -2.5634766,-2.8652344 -3.84375,-6.7646485 -3.84375,-11.6953128 v -11.507812 c 0,-4.998047 1.3476562,-8.91211 4.0429687,-11.742188 2.7011721,-2.835937 6.4863281,-4.253906 11.3554691,-4.253906 1.201172,0 2.384765,0.117188 3.550781,0.351563 1.163086,0.234375 2.378906,0.583007 3.644531,1.042968 l -0.996094,5.003907 c -1.204101,-0.263672 -2.203125,-0.448243 -3,-0.550782 -0.796875,-0.09961 -1.564453,-0.152343 -2.296875,-0.152343 -3.205078,0 -5.62207,0.867187 -7.253906,2.601562 -1.634765,1.734375 -2.449219,4.300781 -2.449219,7.699219 v 11.507812 c 0,3.328125 0.779297,5.8593753 2.34375,7.5937503 1.570313,1.734375 3.855469,2.6015625 6.855469,2.6015625 3.202149,0 5.701172,-1.03125 7.5,-3.09375 1.795899,-2.0683594 2.695313,-4.9042968 2.695313,-8.5078128 z m 45.503906,0 v -24.996093 h 6.597656 V 8.875e-4 h -5.097656 l -1.300781,-4.3945312 c -1.330078,1.7988281 -2.961914,3.1640625 -4.898438,4.10156245 C 70.467803,0.63662969 68.299834,1.10245 65.894561,1.10245 c -4.728516,0 -8.375977,-1.43261719 -10.945313,-4.3007812 -2.563476,-2.8652344 -3.84375,-6.7646485 -3.84375,-11.6953128 v -26.402343 h 6.597657 v 26.402343 c 0,3.328125 0.779297,5.8593753 2.34375,7.5937503 1.570312,1.734375 3.855468,2.6015625 6.855468,2.6015625 3.19336,0 5.689454,-1.03125 7.488282,-3.09375 1.804687,-2.0683594 2.707031,-4.9042968 2.707031,-8.5078128 z m 0,0"
                style="fill:#1d1d1b;fill-opacity:1;fill-rule:nonzero;stroke:none"
                aria-label="du"
                transform="matrix(1.3333333,0,0,1.3333333,12077.064,129.15507)"/>
        <path
                id="path157"
                d="m 14.602373,-41.495206 1.300782,4.5 c 1.458984,-1.866211 3.225586,-3.263672 5.296875,-4.195313 2.068359,-0.9375 4.371093,-1.40625 6.902343,-1.40625 4.998047,0 8.780274,1.617188 11.34375,4.851563 2.569336,3.234375 3.855469,7.883789 3.855469,13.945312 V 8.875e-4 h -12 V -23.799894 c 0,-2.929687 -0.486328,-5.0625 -1.453125,-6.398437 -0.969726,-1.335938 -2.551758,-2.003906 -4.746094,-2.003906 -2.33789,0 -4.157226,0.720703 -5.460937,2.15625 -1.297852,1.429687 -1.945313,3.445312 -1.945313,6.046875 V 8.875e-4 H 5.6961234 V -41.495206 Z m 63.703125,24 v -24 H 90.29378 V 8.875e-4 h -8.894532 l -1.300781,-4.5 c -1.470703,1.8691406 -3.240234,3.2695313 -5.308594,4.20703125 -2.0625,0.92871094 -4.359375,1.39453125 -6.890625,1.39453125 -5.000976,0 -8.786132,-1.6171875 -11.355468,-4.8515625 -2.563477,-3.234375 -3.84375,-7.8808595 -3.84375,-13.9453125 v -23.800781 h 12 v 23.800781 c 0,2.929688 0.480468,5.0625 1.441406,6.398438 0.966797,1.3300776 2.554687,1.992187 4.757812,1.992187 2.334961,0 4.151368,-0.714844 5.449219,-2.144531 1.303711,-1.429688 1.957031,-3.445313 1.957031,-6.046875 z m 45.597652,-25.101563 c 2.79493,0 5.19434,0.536133 7.19532,1.605469 1.99804,1.063477 3.60058,2.695313 4.80468,4.898438 1.45899,-2.132813 3.27247,-3.75 5.4375,-4.851563 2.1709,-1.101562 4.5879,-1.652344 7.25391,-1.652344 4.80469,0 8.41992,1.587891 10.85156,4.757813 2.4375,3.164062 3.65625,7.845703 3.65625,14.039062 V 8.875e-4 h -12 V -23.799894 c 0,-2.929687 -0.46875,-5.0625 -1.40625,-6.398437 -0.93164,-1.335938 -2.39648,-2.003906 -4.39453,-2.003906 -2.13281,0 -3.81738,0.735351 -5.05078,2.203125 -1.23633,1.470703 -1.85156,3.536132 -1.85156,6.199218 V 8.875e-4 h -12 V -23.799894 c 0,-2.929687 -0.46875,-5.0625 -1.40625,-6.398437 -0.93164,-1.335938 -2.39649,-2.003906 -4.39453,-2.003906 -2.13282,0 -3.81739,0.735351 -5.05078,2.203125 -1.23633,1.470703 -1.85157,3.536132 -1.85157,6.199218 V 8.875e-4 h -12 V -41.495206 h 8.90625 l 1.30078,4.59375 c 1.45899,-1.866211 3.19043,-3.28125 5.19141,-4.242188 1.99805,-0.966797 4.26856,-1.453125 6.80859,-1.453125 z m 47.59864,25.101563 v -6.503906 c 0,-5.929688 1.63183,-10.511719 4.89844,-13.746094 3.26367,-3.234375 7.89843,-4.851563 13.89843,-4.851563 5.92969,0 10.54102,1.669922 13.83985,5.003907 3.30468,3.328125 4.95703,8.027343 4.95703,14.097656 0,1.195312 -0.0176,2.279297 -0.0469,3.246094 -0.0322,0.969726 -0.11426,2.220703 -0.24609,3.75 H 183.3963 c 0,2.868164 0.69726,4.986328 2.09766,6.351562 1.40625,1.3681641 3.57421,2.0507813 6.5039,2.0507813 1.5293,0 3.32813,-0.234375 5.39063,-0.703125 2.06836,-0.46875 3.83789,-1.0341797 5.30859,-1.6992183 l 3.90234,8.4023433 c -2.33789,1.13378901 -4.72265,1.95117183 -7.16015,2.4492187 -2.43164,0.49804688 -5.21192,0.75 -8.34375,0.75 -6.32813,0 -11.17676,-1.59667969 -14.54297,-4.7929687 -3.36914,-3.2021485 -5.05078,-7.8046873 -5.05078,-13.8046873 z m 25.79297,-7.40625 v -0.398438 c 0,-2.929687 -0.58301,-5.091797 -1.7461,-6.492187 -1.16601,-1.40625 -2.91504,-2.109375 -5.25,-2.109375 -2.26758,0 -3.98437,0.720703 -5.15625,2.15625 -1.16601,1.429687 -1.74609,3.580078 -1.74609,6.445312 v 0.398438 z m -11.69532,-21.597656 -4.80468,-7.394532 15,-10.605468 5.50781,8.601562 z m 41.10352,5.003906 1.99219,6.703125 c 1.33593,-2.466797 3.03515,-4.335938 5.09765,-5.601563 2.06836,-1.265625 4.44141,-1.898437 7.11328,-1.898437 0.72657,0 1.48829,0.05273 2.28516,0.152344 0.80274,0.09375 1.64063,0.243164 2.50781,0.445312 l -2.0039,11.601563 c -0.86133,-0.140625 -1.59082,-0.240235 -2.19141,-0.304688 -0.60351,-0.07031 -1.2041,-0.105469 -1.80469,-0.105469 -3.06445,0 -5.48144,1.001953 -7.2539,3 -1.7666,2.000977 -2.64844,4.869141 -2.64844,8.601563 V 8.875e-4 h -12 V -41.495206 Z m 30.79102,-4.804688 -8.89454,-8.894531 8.89454,-8.90625 8.90625,8.90625 z m -6,46.3007815 V -41.495206 h 12 V 8.875e-4 Z m 21.41015,-16.4999995 v -7.101563 c 0,-5.663086 1.41211,-10.245117 4.24219,-13.746094 2.83594,-3.498047 6.71777,-5.25 11.64844,-5.25 2.67187,0 4.97168,0.46875 6.90234,1.40625 1.93652,0.931641 3.53906,2.329102 4.80469,4.195313 l 1.30078,-4.5 h 8.89453 v 59.496094 h -12 v -42 c 0,-2.53125 -0.61816,-4.529297 -1.85156,-6 -1.22754,-1.467774 -2.87696,-2.203125 -4.94531,-2.203125 -2.3379,0 -4.08692,0.720703 -5.25,2.15625 -1.16602,1.429687 -1.7461,3.580078 -1.7461,6.445312 v 7.101563 c 0,2.53125 0.46289,4.415039 1.39453,5.648437 0.9375,1.2363281 2.40528,1.8515625 4.40625,1.8515625 0.53028,0 1.06055,-0.049805 1.59375,-0.1523437 0.53028,-0.099609 1.19824,-0.2490235 2.00391,-0.4453125 l 2.49609,8.4960937 c -1.40039,0.80566406 -2.79785,1.37109375 -4.19531,1.69921875 -1.40039,0.33398438 -2.86816,0.50390625 -4.40625,0.50390625 -4.86914,0 -8.63379,-1.56445312 -11.29687,-4.6992187 -2.66602,-3.131836 -3.9961,-7.4326173 -3.9961,-12.9023433 z m 73.80176,-0.996094 v -24 h 11.98828 V 8.875e-4 h -8.89453 l -1.30078,-4.5 c -1.47071,1.8691406 -3.24024,3.2695313 -5.3086,4.20703125 -2.0625,0.92871094 -4.35937,1.39453125 -6.89062,1.39453125 -5.00098,0 -8.78613,-1.6171875 -11.35547,-4.8515625 -2.56348,-3.234375 -3.84375,-7.8808595 -3.84375,-13.9453125 v -23.800781 h 12 v 23.800781 c 0,2.929688 0.48047,5.0625 1.44141,6.398438 0.96679,1.3300776 2.55468,1.992187 4.75781,1.992187 2.33496,0 4.15137,-0.714844 5.44922,-2.144531 1.30371,-1.429688 1.95703,-3.445313 1.95703,-6.046875 z m 21.39844,0 v -6.503906 c 0,-5.929688 1.63183,-10.511719 4.89843,-13.746094 3.26368,-3.234375 7.89844,-4.851563 13.89844,-4.851563 5.92969,0 10.54102,1.669922 13.83985,5.003907 3.30468,3.328125 4.95703,8.027343 4.95703,14.097656 0,1.195312 -0.0176,2.279297 -0.0469,3.246094 -0.0322,0.969726 -0.11426,2.220703 -0.24609,3.75 h -25.40625 c 0,2.868164 0.69726,4.986328 2.09765,6.351562 1.40625,1.3681641 3.57422,2.0507813 6.50391,2.0507813 1.5293,0 3.32813,-0.234375 5.39063,-0.703125 2.06835,-0.46875 3.83789,-1.0341797 5.30859,-1.6992183 l 3.90234,8.4023433 c -2.33789,1.13378901 -4.72265,1.95117183 -7.16015,2.4492187 -2.43164,0.49804688 -5.21192,0.75 -8.34375,0.75 -6.32813,0 -11.17676,-1.59667969 -14.54297,-4.7929687 -3.36914,-3.2021485 -5.05078,-7.8046873 -5.05078,-13.8046873 z m 25.79297,-7.40625 v -0.398438 c 0,-2.929687 -0.58301,-5.091797 -1.7461,-6.492187 -1.16601,-1.40625 -2.91504,-2.109375 -5.25,-2.109375 -2.26758,0 -3.98437,0.720703 -5.15625,2.15625 -1.16601,1.429687 -1.74609,3.580078 -1.74609,6.445312 v 0.398438 z m 0,0"
                style="fill:#1d1d1b;fill-opacity:1;fill-rule:nonzero;stroke:none"
                aria-label=" numérique"
                transform="matrix(1.3333333,0,0,1.3333333,12218.797,129.15507)"/>
        <path
                id="path158"
                d="m 797.063,144.397 h 419.796 V 286.129 H 797.063 Z"
                style="fill:#ffffff;fill-opacity:1;fill-rule:nonzero;stroke:#0071b9;stroke-width:2.5;stroke-linecap:butt;stroke-linejoin:miter;stroke-miterlimit:4;stroke-dasharray:none;stroke-opacity:1"
                transform="matrix(1.3333333,0,0,-1.3333333,10390.56,385.05867)"/>
        <path
                id="path159"
                d="m 14.204139,-48.795987 c 1.998047,-1.069336 4.03125,-1.854493 6.09375,-2.355469 2.068359,-0.498047 4.201172,-0.75 6.398438,-0.75 5.537109,0 9.940429,1.652344 13.207031,4.957031 3.263672,3.298828 4.898437,7.681641 4.898437,13.148438 v 13.898437 c 0,6.336914 -1.787109,11.2382813 -5.355468,14.7070313 -3.5625,3.4628906 -8.645508,5.1914062 -15.246094,5.1914062 H 8.6963266 V -44.999112 C 7.6943734,-45.39755 6.6455453,-45.693448 5.5439828,-45.889737 4.4482797,-46.091886 3.2031625,-46.258878 1.8057016,-46.393644 l 0.2929687,-5.308593 c 2.6015625,0 4.8339844,0.234375 6.703125,0.703125 1.8662107,0.46875 3.6679687,1.204101 5.4023437,2.203125 z m 24,28.898437 v -13.898437 c 0,-3.867188 -1.154297,-6.881836 -3.457031,-9.046875 -2.296875,-2.170899 -5.414063,-3.257813 -9.351563,-3.257813 -1.728515,0 -3.477539,0.251953 -5.25,0.75 -1.766601,0.500977 -3.380859,1.21875 -4.839843,2.15625 v 37.5 h 8.894531 c 4.201172,0 7.584961,-1.265625 10.148437,-3.796875 2.569336,-2.537109 3.855469,-6.005859 3.855469,-10.40625 z m 21.896484,-27.199219 -5.90625,-5.894531 5.90625,-5.90625 5.894532,5.90625 z M 56.795936,8.875e-4 V -41.295987 h 6.597656 V 8.875e-4 Z m 25.5,-41.2968745 1.5,5.097656 c 1.271484,-1.998047 2.874023,-3.530274 4.804687,-4.59375 1.927735,-1.069336 4.060547,-1.605469 6.398438,-1.605469 1.265625,0 2.513672,0.134766 3.75,0.398438 1.233398,0.266601 2.349609,0.667968 3.351559,1.207031 l -2.695309,5.789062 c -0.867188,-0.398437 -1.754883,-0.694336 -2.660156,-0.890625 -0.899414,-0.202148 -1.813477,-0.304687 -2.742188,-0.304687 -3.070312,0 -5.540039,1.086914 -7.40625,3.257812 -1.86914,2.165039 -2.800781,5.115235 -2.800781,8.847657 V 8.875e-4 H 77.19828 V -41.295987 Z m 26.206054,26.402343 v -11.109375 c 0,-5.132812 1.41211,-9.146484 4.24219,-12.046875 2.83594,-2.897461 6.85547,-4.347656 12.05859,-4.347656 5.19434,0 9.21094,1.450195 12.04688,4.347656 2.83593,2.900391 4.2539,6.914063 4.2539,12.046875 0,1.804688 -0.0205,3.339844 -0.0586,4.605469 -0.0322,1.265625 -0.11426,2.466797 -0.24609,3.597656 h -25.69922 v 2.90625 c 0,3.533203 0.84668,6.1142581 2.54297,7.746094 1.70214,1.6347656 4.42089,2.4492188 8.15625,2.4492188 1.33593,0 2.88574,-0.234375 4.65234,-0.703125 1.76367,-0.46875 3.81445,-1.1660157 6.15234,-2.0976563 l 2.4961,5.4960938 c -2.53125,1.13378901 -4.83399,1.9335937 -6.90235,2.4023437 -2.0625,0.46875 -4.19531,0.703125 -6.39843,0.703125 -5.73633,0 -10.05176,-1.33007812 -12.94922,-3.9960937 -2.90039,-2.671875 -4.34766,-6.6708985 -4.34766,-12.0000003 z m 25.99219,-8.601562 v -2.507813 c 0,-3.530273 -0.83203,-6.210937 -2.4961,-8.039062 -1.66406,-1.833985 -4.06347,-2.753906 -7.19531,-2.753906 -3.13476,0 -5.53711,0.919921 -7.20703,2.753906 -1.66406,1.828125 -2.49609,4.508789 -2.49609,8.039062 v 2.507813 z m 17.20605,8.191406 v -10.699219 c 0,-5.264648 1.5,-9.310547 4.5,-12.140625 3,-2.835937 7.33008,-4.253906 12.9961,-4.253906 1.86621,0 3.77929,0.234375 5.74218,0.703125 1.96875,0.462891 3.85547,1.125 5.66016,1.992188 l -2.60156,5.507812 c -1.93067,-0.9375 -3.61524,-1.570312 -5.05078,-1.898437 -1.42969,-0.333985 -2.91504,-0.503907 -4.45313,-0.503907 -3.39844,0 -5.95019,0.884766 -7.65234,2.648438 -1.69629,1.766601 -2.54297,4.415039 -2.54297,7.945312 V -15.3038 c 0,3.673828 0.84668,6.3603516 2.54297,8.0625 1.70215,1.6962891 4.4209,2.5429688 8.15625,2.5429688 1.33594,0 2.86523,-0.2138672 4.59375,-0.6445313 1.73437,-0.4365234 3.5332,-1.0546875 5.40234,-1.8515625 l 2.50781,5.4960938 c -2.26757,1.00195308 -4.38281,1.71386714 -6.35156,2.1445312 -1.96875,0.43652344 -4.01953,0.65625 -6.15234,0.65625 -5.73633,0 -10.05176,-1.3828125 -12.94922,-4.1484375 -2.90039,-2.765625 -4.34766,-6.8496094 -4.34766,-12.2578125 z m 44.69239,-35.496094 h 4.91015 v 9.503907 h 8.39063 v 5.601562 h -8.39063 v 22.992188 c 0,2.601562 0.44824,4.5058589 1.34766,5.7070308 0.89648,1.1953125 2.34668,1.7929687 4.34765,1.7929687 0.33399,0 0.73243,-0.014648 1.19532,-0.046875 0.46875,-0.029297 0.9375,-0.082031 1.40625,-0.1523437 l 0.59765,5.90624995 c -0.5332,0.0615234 -1.11328,0.10839844 -1.74609,0.140625 -0.63281,0.0380859 -1.21875,0.0585938 -1.75781,0.0585938 -4.00196,0 -7.00196,-1.11621094 -9,-3.35156255 -2.00098,-2.2324219 -3,-5.5839844 -3,-10.054687 v -22.992188 h -8.39063 v -5.601562 c 3.86719,0 6.41309,-0.647461 7.64063,-1.945313 1.2334,-1.303711 2.05078,-3.823242 2.44922,-7.558594 z m 27.40722,3.703125 -5.90625,-5.894531 5.90625,-5.90625 5.89453,5.90625 z M 220.49515,8.875e-4 V -41.295987 h 6.59766 V 8.875e-4 Z M 239.70219,-15.3038 v -10.699219 c 0,-5.132812 1.43261,-9.146484 4.30078,-12.046875 2.86523,-2.897461 6.93164,-4.347656 12.19922,-4.347656 5.26464,0 9.33105,1.450195 12.19921,4.347656 2.86524,2.900391 4.30079,6.914063 4.30079,12.046875 V -15.3038 c 0,5.132813 -1.43555,9.1523438 -4.30079,12.0585938 -2.86816,2.90039058 -6.93457,4.3476562 -12.19921,4.3476562 -5.26758,0 -9.33399,-1.44726562 -12.19922,-4.3476562 -2.86817,-2.90625 -4.30078,-6.9257808 -4.30078,-12.0585938 z m 26.40234,0 v -10.699219 c 0,-3.530273 -0.83789,-6.193359 -2.50781,-7.992187 -1.66407,-1.804688 -4.13086,-2.707031 -7.39453,-2.707031 -3.26661,0 -5.73633,0.902343 -7.40625,2.707031 -1.66407,1.798828 -2.4961,4.461914 -2.4961,7.992187 V -15.3038 c 0,3.539063 0.83203,6.2080078 2.4961,8.0039063 1.66992,1.7988281 4.13964,2.6953125 7.40625,2.6953125 3.26367,0 5.73046,-0.8964844 7.39453,-2.6953125 1.66992,-1.7958985 2.50781,-4.4648433 2.50781,-8.0039063 z m 24.09082,-25.992187 1.30078,4.394531 c 1.33594,-1.795899 2.96777,-3.158203 4.89844,-4.089844 1.93652,-0.9375 4.10449,-1.40625 6.5039,-1.40625 4.73438,0 8.38184,1.435547 10.94532,4.300781 2.56933,2.868164 3.85547,6.767578 3.85547,11.695313 V 8.875e-4 H 311.1016 V -26.401456 c 0,-3.328125 -0.78516,-5.859375 -2.35547,-7.59375 -1.56445,-1.734375 -3.84375,-2.601563 -6.84375,-2.601563 -3.20508,0 -5.70703,1.03711 -7.51172,3.105469 -1.79883,2.0625 -2.69531,4.895508 -2.69531,8.496094 V 8.875e-4 h -6.59766 V -41.295987 Z m 0,0"
                style="fill:#1d1d1b;fill-opacity:1;fill-rule:nonzero;stroke:none"
                aria-label="Direction"
                transform="matrix(1.3333333,0,0,1.3333333,11516.008,129.15507)"/>
        <path
                id="path160"
                d="m 1797.852,2.664 h -14.173 v 141.732 h 14.173 z"
                style="fill:#ffffff;fill-opacity:1;fill-rule:nonzero;stroke:#0071b9;stroke-width:2.5;stroke-linecap:butt;stroke-linejoin:miter;stroke-miterlimit:4;stroke-dasharray:none;stroke-opacity:1"
                transform="matrix(1.3333333,0,0,-1.3333333,10390.56,385.05867)"/>
        <path
                id="path161"
                d="m 1783.679,2.664 h -14.174 v 141.732 h 14.174 z"
                style="fill:#ffffff;fill-opacity:1;fill-rule:nonzero;stroke:#0071b9;stroke-width:2.5;stroke-linecap:butt;stroke-linejoin:miter;stroke-miterlimit:4;stroke-dasharray:none;stroke-opacity:1"
                transform="matrix(1.3333333,0,0,-1.3333333,10390.56,385.05867)"/>
        <path
                id="path162"
                d="m 797.063,2.664 h 972.442 V 144.396 H 797.063 Z"
                style="fill:#ffffff;fill-opacity:1;fill-rule:nonzero;stroke:#0071b9;stroke-width:2.5;stroke-linecap:butt;stroke-linejoin:miter;stroke-miterlimit:4;stroke-dasharray:none;stroke-opacity:1"
                transform="matrix(1.3333333,0,0,-1.3333333,10390.56,385.05867)"/>
        <path
                id="path163"
                d="m 36.597134,-18.795966 v -32.003906 h 6.597657 v 32.003906 c 0,6.533204 -1.567383,11.4814457 -4.699219,14.8476566 -3.134766,3.36914065 -7.731445,5.0507813 -13.792969,5.0507813 -6.134766,0 -10.751953,-1.68164065 -13.851562,-5.0507813 C 7.7485016,-7.3145203 6.1986969,-12.262762 6.1986969,-18.795966 v -32.003906 h 6.5976561 v 32.003906 c 0,4.734375 0.963867,8.25 2.894531,10.5468754 1.936524,2.296875 4.939453,3.4453125 9.011719,3.4453125 3.999024,0 6.978516,-1.1484375 8.941406,-3.4453125 1.96875,-2.2968754 2.953125,-5.8125004 2.953125,-10.5468754 z m 24.697266,-22.5 1.300781,4.394532 c 1.335938,-1.795899 2.967774,-3.158203 4.898438,-4.089844 1.936523,-0.9375 4.104492,-1.40625 6.503906,-1.40625 4.734375,0 8.381836,1.435547 10.945312,4.300781 2.569336,2.868164 3.855469,6.767578 3.855469,11.695313 V 9.09375e-4 H 82.20065 V -26.401434 c 0,-3.328125 -0.785156,-5.859375 -2.355469,-7.59375 -1.564453,-1.734375 -3.84375,-2.601563 -6.84375,-2.601563 -3.205078,0 -5.707031,1.03711 -7.511719,3.105469 -1.798828,2.0625 -2.695312,4.895508 -2.695312,8.496094 V 9.09375e-4 H 56.196744 V -41.295966 Z m 43.90723,-5.800781 -5.906253,-5.894531 5.906253,-5.90625 5.89453,5.90625 z M 101.89694,9.09375e-4 V -41.295966 h 6.59766 V 9.09375e-4 Z M 135.79635,-7.6045594 147.50338,-41.295966 h 6.79688 L 139.6987,9.09375e-4 h -7.89844 L 117.1987,-41.295966 h 6.79687 z m 25.80469,-7.2890626 v -11.109375 c 0,-5.132812 1.41211,-9.146484 4.24219,-12.046875 2.83594,-2.897461 6.85547,-4.347656 12.05859,-4.347656 5.19434,0 9.21094,1.450195 12.04688,4.347656 2.83593,2.900391 4.2539,6.914063 4.2539,12.046875 0,1.804688 -0.0205,3.339844 -0.0586,4.605469 -0.0322,1.265625 -0.11426,2.466797 -0.24609,3.597656 H 168.1987 v 2.90625 c 0,3.533203 0.84668,6.1142579 2.54297,7.7460939 1.70214,1.6347656 4.42089,2.4492187 8.15625,2.4492187 1.33593,0 2.88574,-0.234375 4.65234,-0.703125 1.76367,-0.46875 3.81445,-1.1660156 6.15234,-2.0976562 l 2.4961,5.4960937 c -2.53125,1.13378909 -4.83399,1.93359378 -6.90235,2.40234378 -2.0625,0.46875 -4.19531,0.70312502 -6.39843,0.70312502 -5.73633,0 -10.05176,-1.33007815 -12.94922,-3.9960938 -2.90039,-2.671875 -4.34766,-6.6708984 -4.34766,-12.0000001 z m 25.99219,-8.601562 v -2.507813 c 0,-3.530273 -0.83203,-6.210937 -2.4961,-8.039062 -1.66406,-1.833985 -4.06347,-2.753907 -7.19531,-2.753907 -3.13476,0 -5.53711,0.919922 -7.20703,2.753907 -1.66406,1.828125 -2.49609,4.508789 -2.49609,8.039062 v 2.507813 z m 23.50195,-17.800782 1.5,5.097657 c 1.27149,-1.998047 2.87402,-3.530274 4.80469,-4.59375 1.92773,-1.069336 4.06055,-1.605469 6.39844,-1.605469 1.26562,0 2.51367,0.134766 3.75,0.398437 1.23339,0.266602 2.34961,0.667969 3.35156,1.207032 l -2.69531,5.789062 c -0.86719,-0.398437 -1.75489,-0.694336 -2.66016,-0.890625 -0.89941,-0.202148 -1.81348,-0.304687 -2.74219,-0.304687 -3.07031,0 -5.54004,1.086914 -7.40625,3.257812 -1.86914,2.165039 -2.80078,5.115235 -2.80078,8.847656 V 9.09375e-4 h -6.59766 V -41.295966 Z m 28.50293,18 c -1.40039,-1.069336 -2.39941,-2.238281 -3,-3.503906 -0.60351,-1.265625 -0.90234,-2.765625 -0.90234,-4.5 0,-3.263672 1.31543,-5.929687 3.94922,-7.992187 2.63086,-2.06836 5.91796,-3.105469 9.85546,-3.105469 2.39649,0 4.76075,0.269531 7.08985,0.808594 2.33496,0.533203 4.50293,1.297851 6.5039,2.296875 l -2.58984,5.496093 c -2.07129,-0.999023 -3.97266,-1.713867 -5.70703,-2.144531 -1.73438,-0.436523 -3.46875,-0.65625 -5.20313,-0.65625 -2.26757,0 -4.05175,0.46875 -5.35546,1.40625 -1.29786,0.931641 -1.94532,2.197266 -1.94532,3.796875 0,1.063477 0.24903,1.977539 0.75,2.742188 0.49805,0.767578 1.38575,1.517578 2.66016,2.25 0.66211,0.398437 1.71094,0.949218 3.14062,1.652343 1.43555,0.703125 2.32325,1.122071 2.66016,1.253907 4.66406,2.267578 7.84277,4.382812 9.53906,6.351562 1.70215,1.962891 2.55469,4.344727 2.55469,7.1484376 0,3.3984375 -1.35351,6.0996094 -4.05469,8.0976563 -2.69531,1.99804685 -6.27832,3 -10.74609,3 -2.13281,0 -4.30078,-0.21972659 -6.50391,-0.65625002 -2.19726,-0.43066407 -4.55859,-1.14257813 -7.08984,-2.14453128 l 2.09766,-5.6015625 c 2.19433,0.8671875 4.22461,1.5 6.09375,1.8984375 1.86621,0.3984375 3.63574,0.5976563 5.30859,0.5976563 2.79492,0 4.87793,-0.4277344 6.24609,-1.2890625 1.36524,-0.8671875 2.05078,-2.203125 2.05078,-4.0078124 0,-1.664063 -0.58593,-3.046875 -1.75781,-4.148438 -1.16601,-1.101562 -3.64453,-2.583984 -7.4414,-4.453125 -3.33692,-1.664062 -5.40821,-2.724609 -6.21094,-3.1875 -0.79688,-0.46875 -1.46192,-0.9375 -1.99219,-1.40625 z m 38.10352,-23.800781 -5.90625,-5.894531 5.90625,-5.90625 5.89453,5.90625 z M 274.39694,9.09375e-4 V -41.295966 h 6.59766 V 9.09375e-4 Z M 300.09323,-50.799872 h 4.91015 v 9.503906 h 8.39063 v 5.601563 h -8.39063 v 22.992187 c 0,2.601563 0.44825,4.5058598 1.34766,5.7070316 0.89648,1.1953125 2.34668,1.7929688 4.34766,1.7929688 0.33398,0 0.73242,-0.014648 1.19531,-0.046875 0.46875,-0.029297 0.9375,-0.082031 1.40625,-0.1523438 l 0.59766,5.90625003 c -0.53321,0.0615234 -1.11329,0.10839843 -1.7461,0.140625 -0.63281,0.0380859 -1.21875,0.0585938 -1.75781,0.0585938 -4.00195,0 -7.00195,-1.11621094 -9,-3.35156253 -2.00098,-2.2324219 -3,-5.5839844 -3,-10.0546879 v -22.992187 h -8.39063 v -5.601563 c 3.86719,0 6.41309,-0.647461 7.64063,-1.945312 1.2334,-1.303711 2.05078,-3.823242 2.44922,-7.558594 z m 22.70801,35.90625 v -11.109375 c 0,-5.132812 1.41211,-9.146484 4.24218,-12.046875 2.83594,-2.897461 6.85547,-4.347656 12.0586,-4.347656 5.19433,0 9.21093,1.450195 12.04687,4.347656 2.83594,2.900391 4.25391,6.914063 4.25391,12.046875 0,1.804688 -0.0205,3.339844 -0.0586,4.605469 -0.0322,1.265625 -0.11425,2.466797 -0.24609,3.597656 h -25.69922 v 2.90625 c 0,3.533203 0.84668,6.1142579 2.54297,7.7460939 1.70215,1.6347656 4.4209,2.4492187 8.15625,2.4492187 1.33594,0 2.88574,-0.234375 4.65234,-0.703125 1.76368,-0.46875 3.81446,-1.1660156 6.15235,-2.0976562 l 2.49609,5.4960937 c -2.53125,1.13378909 -4.83398,1.93359378 -6.90234,2.40234378 -2.0625,0.46875 -4.19531,0.70312502 -6.39844,0.70312502 -5.73633,0 -10.05176,-1.33007815 -12.94922,-3.9960938 -2.90039,-2.671875 -4.34765,-6.6708984 -4.34765,-12.0000001 z m 25.99218,-8.601562 v -2.507813 c 0,-3.530273 -0.83203,-6.210937 -2.49609,-8.039062 -1.66406,-1.833985 -4.06348,-2.753907 -7.19531,-2.753907 -3.13477,0 -5.53711,0.919922 -7.20703,2.753907 -1.66407,1.828125 -2.4961,4.508789 -2.4961,8.039062 v 2.507813 z m -13.59375,-23.601563 -2.78906,-4.394531 12.19922,-8.601563 3.39844,5.296875 z m 76.79297,30.796875 v -43.101562 h 6.60938 V 9.09375e-4 h -5.10938 L 412.19186,-4.3936219 c -1.33008,1.7988282 -2.96191,3.1640625 -4.89844,4.10156253 -1.93066,0.92871093 -4.0957,1.39453127 -6.49218,1.39453127 -4.73438,0 -8.3877,-1.43261721 -10.95704,-4.3007813 -2.56347,-2.8652343 -3.84375,-6.7646484 -3.84375,-11.6953126 v -11.507812 c 0,-4.998047 1.34766,-8.91211 4.04297,-11.742188 2.70118,-2.835937 6.48633,-4.253906 11.35547,-4.253906 1.20117,0 2.38477,0.117187 3.55078,0.351562 1.16309,0.234375 2.37891,0.583008 3.64453,1.042969 l -0.99609,5.003906 c -1.2041,-0.263671 -2.20312,-0.448242 -3,-0.550781 -0.79687,-0.09961 -1.56445,-0.152344 -2.29687,-0.152344 -3.20508,0 -5.62207,0.867188 -7.25391,2.601563 -1.63477,1.734375 -2.44922,4.300781 -2.44922,7.699219 v 11.507812 c 0,3.328125 0.7793,5.8593751 2.34375,7.5937501 1.57031,1.734375 3.85547,2.6015625 6.85547,2.6015625 3.20215,0 5.70117,-1.03125 7.5,-3.09375 1.7959,-2.0683593 2.69531,-4.9042966 2.69531,-8.5078126 z m 19.00781,1.40625 v -11.109375 c 0,-5.132812 1.41211,-9.146484 4.24219,-12.046875 2.83594,-2.897461 6.85547,-4.347656 12.0586,-4.347656 5.19433,0 9.21093,1.450195 12.04687,4.347656 2.83594,2.900391 4.25391,6.914063 4.25391,12.046875 0,1.804688 -0.0205,3.339844 -0.0586,4.605469 -0.0322,1.265625 -0.11425,2.466797 -0.24609,3.597656 h -25.69922 v 2.90625 c 0,3.533203 0.84668,6.1142579 2.54297,7.7460939 1.70215,1.6347656 4.4209,2.4492187 8.15625,2.4492187 1.33594,0 2.88574,-0.234375 4.65234,-0.703125 1.76368,-0.46875 3.81446,-1.1660156 6.15235,-2.0976562 l 2.49609,5.4960937 c -2.53125,1.13378909 -4.83398,1.93359378 -6.90234,2.40234378 -2.0625,0.46875 -4.19532,0.70312502 -6.39844,0.70312502 -5.73633,0 -10.05176,-1.33007815 -12.94922,-3.9960938 -2.90039,-2.671875 -4.34766,-6.6708984 -4.34766,-12.0000001 z m 25.99219,-8.601562 v -2.507813 c 0,-3.530273 -0.83203,-6.210937 -2.49609,-8.039062 -1.66406,-1.833985 -4.06348,-2.753907 -7.19531,-2.753907 -3.13477,0 -5.53711,0.919922 -7.20704,2.753907 -1.66406,1.828125 -2.49609,4.508789 -2.49609,8.039062 v 2.507813 z m 39.41309,-5.097657 c -1.60254,-1.335937 -2.77149,-2.768554 -3.50391,-4.300781 -0.73535,-1.538086 -1.10156,-3.272461 -1.10156,-5.203125 0,-4.130859 1.31543,-7.464844 3.94922,-9.996094 2.63086,-2.537109 6.01465,-3.808593 10.14844,-3.808593 2.53125,0 4.86328,0.433593 6.99609,1.300781 2.13867,0.867187 4.80762,2.566406 8.00391,5.097656 1.93652,1.541016 3.67089,2.625 5.20312,3.257813 1.5293,0.632812 3.22852,0.949218 5.09766,0.949218 2.13281,0 3.72949,-0.764648 4.79297,-2.296875 1.06933,-1.538086 1.77246,-3.940429 2.10937,-7.207031 h 4.89844 v 9.503906 h 8.40234 v 5.601563 h -8.40234 v 22.992187 c 0,2.601563 0.44824,4.5058598 1.34765,5.7070316 0.89649,1.1953125 2.34668,1.7929688 4.34766,1.7929688 0.33398,0 0.73242,-0.014648 1.19531,-0.046875 0.46875,-0.029297 0.9375,-0.082031 1.40625,-0.1523438 l 0.59766,5.90625003 c -0.5332,0.0615234 -1.11328,0.10839843 -1.74609,0.140625 -0.63282,0.0380859 -1.21582,0.0585938 -1.7461,0.0585938 -4.00195,0 -7.00195,-1.11621094 -9,-3.35156253 -2.00097,-2.2324219 -3,-5.5839844 -3,-10.0546879 v -22.992187 h -3.79687 c -3,0 -5.51953,-0.366211 -7.5586,-1.101563 -2.0332,-0.732421 -4.3125,-2.100586 -6.84375,-4.101562 -2.53125,-1.927734 -4.64941,-3.260742 -6.35156,-3.996094 -1.70508,-0.732422 -3.4541,-1.101562 -5.25,-1.101562 -2.53125,0 -4.53223,0.667968 -6,2.003906 -1.4707,1.330078 -2.20312,3.125976 -2.20312,5.390625 0,1.204101 0.24902,2.305664 0.75,3.304687 0.49804,1.001954 1.2832,1.933594 2.35546,2.800782 0.39844,0.328125 1.09571,0.793945 2.09766,1.394531 0.99902,0.603516 2.33203,1.335937 3.99609,2.203125 3.20215,1.664062 5.48731,2.929687 6.85547,3.796875 1.36524,0.867187 2.54883,1.669922 3.55078,2.402344 1.73438,1.470703 3.01465,3.020507 3.84375,4.652343 0.83497,1.634766 1.25391,3.547852 1.25391,5.742188 0.0615,4.274414 -1.44141,7.5791015 -4.51172,9.9140625 -3.06445,2.32910149 -7.35937,3.4921875 -12.89062,3.4921875 -2.26758,0 -4.56739,-0.23437507 -6.90235,-0.70312507 -2.3291,-0.46875 -4.82812,-1.16601563 -7.5,-2.09765623 l 2.10938,-5.6953125 c 2.59277,0.9316407 4.85449,1.5791016 6.78515,1.9453125 1.93653,0.3691407 3.94043,0.5507813 6.01172,0.5507813 3.46875,0 6.06446,-0.6152344 7.79297,-1.8515625 1.73438,-1.2333985 2.56934,-3.0498047 2.50781,-5.4492185 0,-1.265625 -0.3164,-2.414063 -0.94921,-3.445313 -0.63282,-1.037109 -1.61719,-2.05664 -2.95313,-3.058594 -0.33691,-0.263671 -1.07227,-0.729492 -2.20312,-1.394531 -1.13379,-0.662109 -2.66602,-1.529297 -4.59375,-2.601562 -3.73536,-2.132813 -6.07032,-3.498047 -7.00782,-4.101563 -0.93164,-0.600586 -1.72851,-1.198242 -2.39062,-1.792969 z m 70.6875,-12.703125 1.5,5.097657 c 1.27148,-1.998047 2.87402,-3.530274 4.80469,-4.59375 1.92773,-1.069336 4.06054,-1.605469 6.39843,-1.605469 1.26563,0 2.51367,0.134766 3.75,0.398437 1.2334,0.266602 2.34961,0.667969 3.35157,1.207032 l -2.69532,5.789062 c -0.86718,-0.398437 -1.75488,-0.694336 -2.66015,-0.890625 -0.89942,-0.202148 -1.81348,-0.304687 -2.74219,-0.304687 -3.07031,0 -5.54004,1.086914 -7.40625,3.257812 -1.86914,2.165039 -2.80078,5.115235 -2.80078,8.847656 V 9.09375e-4 h -6.59766 V -41.295966 Z m 37.90429,36.5976566 c 3.33399,0 6.03516,-0.9140625 8.09766,-2.7421875 2.06836,-1.8339843 3.10547,-4.3857421 3.10547,-7.6523441 v -5.203125 c -7.07227,0.134766 -11.92383,0.832032 -14.55469,2.097657 -2.63379,1.265625 -3.94922,3.46582 -3.94922,6.597656 0,2.2031249 0.64746,3.908203 1.94532,5.1093749 1.30371,1.1953125 3.08789,1.7929687 5.35546,1.7929687 z m -8.80078,-29.2968746 -2.1914,-5.402344 c 2.72461,-1.201172 5.12109,-2.003906 7.18359,-2.402344 2.06836,-0.398437 4.37402,-0.597656 6.91406,-0.597656 4.66407,0 8.27637,1.300781 10.83985,3.902344 2.56933,2.601562 3.85547,6.234375 3.85547,10.898437 V 9.09375e-4 h -5.09766 L 616.39987,-4.4990906 c -1.66406,1.930664 -3.46582,3.3486328 -5.40235,4.25390623 -1.93066,0.89648437 -4.06347,1.34765627 -6.39843,1.34765627 -4.33594,0 -7.67285,-1.11621096 -10.00782,-3.3515625 -2.3291,-2.2324219 -3.49218,-5.3496094 -3.49218,-9.3515624 0,-4.795899 1.94824,-8.276367 5.84765,-10.441406 3.89649,-2.170899 10.31543,-3.28711 19.25391,-3.351563 v -2.203125 c 0,-3 -0.73535,-5.25 -2.20313,-6.75 -1.4707,-1.5 -3.70312,-2.25 -6.70312,-2.25 -1.72852,0 -3.45703,0.199219 -5.19141,0.597656 -1.73437,0.398438 -3.70312,1.066407 -5.90625,2.003907 z m 40.60254,10.699218 c -1.40039,-1.069336 -2.39941,-2.238281 -3,-3.503906 -0.60351,-1.265625 -0.90234,-2.765625 -0.90234,-4.5 0,-3.263672 1.31543,-5.929687 3.94922,-7.992187 2.63086,-2.06836 5.91797,-3.105469 9.85547,-3.105469 2.39648,0 4.76074,0.269531 7.08984,0.808594 2.33496,0.533203 4.50293,1.297851 6.50391,2.296875 l -2.58985,5.496093 c -2.07129,-0.999023 -3.97265,-1.713867 -5.70703,-2.144531 -1.73437,-0.436523 -3.46875,-0.65625 -5.20312,-0.65625 -2.26758,0 -4.05176,0.46875 -5.35547,1.40625 -1.29785,0.931641 -1.94531,2.197266 -1.94531,3.796875 0,1.063477 0.24902,1.977539 0.75,2.742188 0.49804,0.767578 1.38574,1.517578 2.66015,2.25 0.66211,0.398437 1.71094,0.949218 3.14063,1.652343 1.43554,0.703125 2.32324,1.122071 2.66015,1.253907 4.66407,2.267578 7.84278,4.382812 9.53907,6.351562 1.70214,1.962891 2.55468,4.344727 2.55468,7.1484376 0,3.3984375 -1.35351,6.0996094 -4.05468,8.0976563 -2.69532,1.99804685 -6.27833,3 -10.7461,3 -2.13281,0 -4.30078,-0.21972659 -6.5039,-0.65625002 -2.19727,-0.43066407 -4.5586,-1.14257813 -7.08985,-2.14453128 l 2.09766,-5.6015625 c 2.19433,0.8671875 4.22461,1.5 6.09375,1.8984375 1.86621,0.3984375 3.63574,0.5976563 5.30859,0.5976563 2.79492,0 4.87793,-0.4277344 6.2461,-1.2890625 1.36523,-0.8671875 2.05078,-2.203125 2.05078,-4.0078124 0,-1.664063 -0.58594,-3.046875 -1.75782,-4.148438 -1.16601,-1.101562 -3.64453,-2.583984 -7.4414,-4.453125 -3.33692,-1.664062 -5.40821,-2.724609 -6.21094,-3.1875 -0.79687,-0.46875 -1.46191,-0.9375 -1.99219,-1.40625 z M 671.39596,9.09375e-4 V -59.401434 h 6.59766 v 43.101562 c 0,3.603516 0.88183,6.4394533 2.64844,8.5078126 1.77246,2.0625 4.18945,3.09375 7.2539,3.09375 3.13184,0 5.49903,-0.8671875 7.10156,-2.6015625 1.59961,-1.734375 2.40235,-4.2656251 2.40235,-7.5937501 v -11.507812 c 0,-3.398438 -0.75,-5.964844 -2.25,-7.699219 -1.5,-1.734375 -3.7207,-2.601563 -6.65625,-2.601563 -0.86719,0 -1.78711,0.102539 -2.75391,0.304688 -0.96094,0.205078 -1.83984,0.503906 -2.63672,0.902344 l -2.30859,-4.40625 c 1.33594,-0.796875 2.7334,-1.40918 4.19531,-1.839844 1.46778,-0.436524 2.93555,-0.65625 4.40625,-0.65625 4.66406,0 8.26172,1.40332 10.79297,4.207031 2.53711,2.797852 3.80859,6.726563 3.80859,11.789063 v 11.507812 c 0,4.798828 -1.35351,8.6660158 -4.05468,11.6015626 -2.69532,2.92968753 -6.375,4.3945313 -11.03907,4.3945313 -2.33789,0 -4.45898,-0.46582034 -6.36328,-1.39453127 -1.89843,-0.93750003 -3.48047,-2.27343753 -4.74609,-4.00781253 L 676.49362,9.09375e-4 Z M 715.20065,-15.303778 v -10.699219 c 0,-5.132812 1.43262,-9.146484 4.30078,-12.046875 2.86524,-2.897461 6.93164,-4.347656 12.19922,-4.347656 5.26465,0 9.33105,1.450195 12.19922,4.347656 2.86523,2.900391 4.30078,6.914063 4.30078,12.046875 v 10.699219 c 0,5.132812 -1.43555,9.1523436 -4.30078,12.0585936 -2.86817,2.90039065 -6.93457,4.3476563 -12.19922,4.3476563 -5.26758,0 -9.33398,-1.44726565 -12.19922,-4.3476563 -2.86816,-2.90625 -4.30078,-6.9257816 -4.30078,-12.0585936 z m 26.40234,0 v -10.699219 c 0,-3.530273 -0.83789,-6.193359 -2.50781,-7.992187 -1.66406,-1.804688 -4.13086,-2.707032 -7.39453,-2.707032 -3.2666,0 -5.73633,0.902344 -7.40625,2.707032 -1.66406,1.798828 -2.49609,4.461914 -2.49609,7.992187 v 10.699219 c 0,3.539062 0.83203,6.2080077 2.49609,8.0039061 1.66992,1.7988282 4.13965,2.6953125 7.40625,2.6953125 3.26367,0 5.73047,-0.8964843 7.39453,-2.6953125 1.66992,-1.7958984 2.50781,-4.4648441 2.50781,-8.0039061 z m 44.29395,-0.996094 v -24.996094 h 6.59766 V 9.09375e-4 h -5.09766 L 786.09616,-4.3936219 c -1.33008,1.7988282 -2.96192,3.1640625 -4.89844,4.10156253 -1.93066,0.92871093 -4.09863,1.39453127 -6.50391,1.39453127 -4.72851,0 -8.37597,-1.43261721 -10.94531,-4.3007813 -2.56348,-2.8652343 -3.84375,-6.7646484 -3.84375,-11.6953126 v -26.402344 h 6.59766 v 26.402344 c 0,3.328125 0.77929,5.8593751 2.34375,7.5937501 1.57031,1.734375 3.85547,2.6015625 6.85547,2.6015625 3.19336,0 5.68945,-1.03125 7.48828,-3.09375 1.80469,-2.0683593 2.70703,-4.9042966 2.70703,-8.5078126 z m 25.29785,-24.996094 1.5,5.097657 c 1.27148,-1.998047 2.87402,-3.530274 4.80469,-4.59375 1.92773,-1.069336 4.06054,-1.605469 6.39844,-1.605469 1.26562,0 2.51367,0.134766 3.75,0.398437 1.23339,0.266602 2.3496,0.667969 3.35156,1.207032 l -2.69531,5.789062 c -0.86719,-0.398437 -1.75489,-0.694336 -2.66016,-0.890625 -0.89941,-0.202148 -1.81348,-0.304687 -2.74219,-0.304687 -3.07031,0 -5.54004,1.086914 -7.40625,3.257812 -1.86914,2.165039 -2.80078,5.115235 -2.80078,8.847656 V 9.09375e-4 h -6.59766 V -41.295966 Z m 26.20606,26.402344 v -11.507812 c 0,-4.795899 1.34765,-8.660157 4.04296,-11.589844 2.70118,-2.935547 6.38672,-4.40625 11.05079,-4.40625 2.33496,0 4.45312,0.46875 6.35156,1.40625 1.89844,0.931641 3.48047,2.261719 4.74609,3.996094 l 1.30078,-4.300782 h 5.10938 V 0.59856563 c 0,6.07031247 -1.41797,10.62011737 -4.25391,13.65234337 -2.83594,3.029297 -7.08691,4.546875 -12.75,4.546875 -1.60254,0 -3.30469,-0.169921 -5.10937,-0.503906 -1.79883,-0.328125 -3.72657,-0.826172 -5.78907,-1.488281 l 2.09766,-5.601563 c 1.66406,0.591797 3.22852,1.022461 4.69922,1.289063 1.46777,0.272461 2.83594,0.410156 4.10156,0.410156 3.60059,0 6.23438,-0.955078 7.89844,-2.859375 1.66406,-1.8984374 2.49609,-5.0478514 2.49609,-9.44531237 V -24.995184 c 0,-3.600586 -0.88476,-6.433594 -2.64843,-8.496094 -1.76661,-2.068359 -4.18067,-3.105469 -7.24219,-3.105469 -3.13477,0 -5.50196,0.867188 -7.10156,2.601563 -1.60254,1.734375 -2.40235,4.265625 -2.40235,7.59375 v 11.507812 c 0,3.328125 0.79981,5.8769533 2.40235,7.6406251 1.5996,1.7666016 3.86718,2.6484375 6.79687,2.6484375 0.86719,0 1.71387,-0.09668 2.54297,-0.2929687 0.83496,-0.2021485 1.6875,-0.5039063 2.55469,-0.9023438 l 2.30859,4.40625 c -1.14258,0.79687503 -2.42578,1.40917971 -3.85547,1.83984378 -1.42969,0.43652343 -2.91504,0.65625002 -4.45312,0.65625002 -4.73438,0 -8.40235,-1.4121094 -11.00391,-4.2421875 -2.5957,-2.8359375 -3.89062,-6.7529297 -3.89062,-11.7539064 z m 0,0"
                style="fill:#1d1d1b;fill-opacity:1;fill-rule:nonzero;stroke:none"
                aria-label="Université de Srasbourg"
                transform="matrix(1.3333333,0,0,1.3333333,11517.334,318.1316)"/>
    </g>
    <g id="layer-MC5" transform="translate(-10390.559)">
        <path
                id="path164"
                d="M 0,0 H 2048.819"
                style="fill:none;stroke:#939292;stroke-width:1;stroke-linecap:butt;stroke-linejoin:miter;stroke-miterlimit:10;stroke-dasharray:none;stroke-opacity:1"
                transform="matrix(1.3333333,0,0,-1.3333333,10394.119,318.78627)"
                clip-path="url(#clipPath165)"/>
        <path
                id="path166"
                d="M 0,0 H 2048.819"
                style="fill:none;stroke:#939292;stroke-width:1;stroke-linecap:butt;stroke-linejoin:miter;stroke-miterlimit:10;stroke-dasharray:none;stroke-opacity:1"
                transform="matrix(1.3333333,0,0,-1.3333333,10394.119,129.8096)"
                clip-path="url(#clipPath167)"/>
    </g>
</svg>
